<?xml version="1.0" encoding="UTF-8"?><svg id="Layer_1" xmlns="http://www.w3.org/2000/svg" viewBox="0 0 1650.39 293.15"><defs><style>.cls-1{fill:none;stroke:'current';stroke-miterlimit:10;stroke-width:4px;}</style></defs>
<path pathLength="1" class="cls-1 path" d="m52.24.59c-10.25,33.39-2.44,66.69,17.86,80.95,37.75,26.52,106.39-21.46,103.57-44.05-1.82-14.64-34.57-25.76-60.71-23.81C53.87,18.09-2.13,91.51,2.24,152.97c4.87,68.53,178.59,125.54,321.18,106.99,4.11-.53,6.44-4.86,4.01-8.22,0,0-50.17-62.43-70.48-78.56-.57-.45-1.24-.42-1.61.21-25.74,44.35-30.91,68.45-30.91,68.45-2.11,5.45,1.32,11.46,7.09,12.42l91.63,12.27c2.23.37,4.41-.85,5.27-2.94,0,0,37.89-80.11,45.87-108.45.88-3.15,1.32-3.58-2.39-4.43-24.21-6.89-90.13-14.7-90.13-14.7-1.82-.35-3.65.52-4.53,2.15l-18.34,26.56c-.38.71.51,1.45.96,1.55,33.65,7.77,126.45-12.71,159.15-12.36,21.39,1.04,59.48,2.09,78.25-3.74,30.71-9.53,66.8-15.68,66.8-15.68,6.42-1.47,13.09-1.49,19.52-.05l66.04,14.78c1.81.41,2.41,2.68,1.05,3.94-20.79,19.29-50.32,14.37-75.14,15.97-21.57,1.39,16.21,114.47-1.39,116.17-21.57,2.09-78.64-15.23-80.7-29.22-8.54-58.01-7.39-93.07,0-93.22,15.16-.31,46.73,7.84,82.78,12.52,13.27,1.72-12.68,104.5-1.39,104.35,15.63-.22,84.13-17.33,84.87-26.43,4.17-51.48-19.48-77.91-4.87-99.48s77.51-57.69,105.83-71.53c31.3-15.3,70.44-30.41,88.71-13.22,6.16,5.8,9.12,12.56,10.23,15.85,5.37,15.96-6.66,37.1-16.77,53.16-4.59,7.28-9.76,14.17-15.41,20.66-18.3,21.03-39.17,48.48-58.64,72.44-1.45,1.79-1.01,4.44.95,5.65l85.5,53.03c2.94,1.82,6.69,1.69,9.49-.34l71.73-51.98c3.05-2.21,3.45-6.62.83-9.33l-81.04-84.33c-.98-1.02-2.71-.61-3.1.75-9.43,32.28,4.24,130.82,12.9,139.92,21.82,22.92,49.3-29.92,191.77-121.88l24.04-13.17c9.14-5.01,19.61-7.08,29.97-5.94l83.21,9.2-2.74,95.13c-.24,8.34-4.72,15.99-11.87,20.28l-17.73,10.32c-7.24,4.34-17.05-31.9-24.7-35.48-46.4-21.74-46.36-49.06-58.53-69.32-.08-.13-.29-.05-.26.1,3.08,13.75,11.43,33.32,3.83,50.44-9.74,21.91-24.7,46.48-25.04,44.87-4.7-21.74-15.3-101.22,5.57-103.83,20.87-3.65,98.89-8.29,122.43-8.87,17.23-.42-52.62,84.08-43.65,85.57,12.66,2.09,54.42-32.77,83.55-52.75,14.05-9.64,21.75-.89,31.61,13l11.7,16.48c13.34,18.8,21.01,20.02,33.18.44l18.61-29.94c6.23-10.03,20.69-10.4,27.43-.71l21.6,31.03c.79,1.13,1.69,2.17,2.7,3.11l67.57,62.44c4.16,3.84,9.81,5.62,15.42,4.85l55.16-7.61c7.21-.99,13.34-5.74,16.12-12.46l32.12-77.65c2.8-6.76,1.29-14.54-3.84-19.77l-38.08-38.85c-3.3-3.37-7.72-5.4-12.42-5.72l-91.31-1.6c-2.83-.19-3.65-3.97-1.15-5.3,12.84-6.87,64.8-15.57,71.06-12.44,8.29,4.15,31.64,11.66,26.61,18.78-25.04,35.48-29.74,44.35-75.65,72.52-9.91-14.61-18.26-36-25.04-66.26-.78-3.47-5.08-4.42-6.54-1.17l-31.48,70.08c-2.92,6.48,2.25,13.68,9.32,13l40.11-10.4c6.37-1.93,13.05,1.86,14.68,8.31l4.17,60.52c1.91,7.61,10.38,11.5,17.4,7.99l70.66-39.72c4.08-2.29,6.68-6.55,6.82-11.23,1.14-36.21-6.59-61.63-13.51-81.78-2.47-7.19-10.3-10.93-17.45-8.32-26.27,9.59-64.27,43.49-66.02,65.76,6.4,34.42,101.67,59.28,174.78,32.35,15.6-5.75,27.98-13.04,37.04-19.3"/>
</svg>
